<svg width="32" height="33" viewBox="0 0 32 33" fill="none" xmlns="http://www.w3.org/2000/svg">
<path fill-rule="evenodd" clip-rule="evenodd" d="M2.66699 16.6866C2.66699 9.66275 8.28033 3.33325 16.027 3.33325C23.6003 3.33325 29.3337 9.54257 29.3337 16.6466C29.3337 24.8856 22.6137 29.9999 16.0003 29.9999C13.8137 29.9999 11.387 29.4124 9.44033 28.264C8.76033 27.85 8.18699 27.5429 7.45366 27.7833L4.76033 28.5845C4.08033 28.7981 3.46699 28.264 3.66699 27.5429L4.56033 24.5517C4.70699 24.1378 4.68033 23.6971 4.46699 23.3499C3.32033 21.2401 2.66699 18.93 2.66699 16.6866ZM14.267 16.6866C14.267 17.6347 15.027 18.3958 15.9737 18.4092C16.9203 18.4092 17.6803 17.6347 17.6803 16.7C17.6803 15.7519 16.9203 14.9907 15.9737 14.9907C15.0403 14.9774 14.267 15.7519 14.267 16.6866ZM20.4137 16.7C20.4137 17.6347 21.1737 18.4092 22.1203 18.4092C23.067 18.4092 23.827 17.6347 23.827 16.7C23.827 15.7519 23.067 14.9907 22.1203 14.9907C21.1737 14.9907 20.4137 15.7519 20.4137 16.7ZM9.82699 18.4092C8.89366 18.4092 8.12033 17.6347 8.12033 16.7C8.12033 15.7519 8.88033 14.9907 9.82699 14.9907C10.7737 14.9907 11.5337 15.7519 11.5337 16.7C11.5337 17.6347 10.7737 18.3958 9.82699 18.4092Z" fill="url(#paint0_linear_1231_25766)"/>
<defs>
<linearGradient id="paint0_linear_1231_25766" x1="29.3337" y1="29.9999" x2="-2.39728" y2="20.7998" gradientUnits="userSpaceOnUse">
<stop stop-color="#246BFD"/>
<stop offset="1" stop-color="#5089FF"/>
</linearGradient>
</defs>
</svg>
