<svg width="32" height="33" viewBox="0 0 32 33" fill="none" xmlns="http://www.w3.org/2000/svg">
<path fill-rule="evenodd" clip-rule="evenodd" d="M22.5857 4.66663C24.3737 4.66663 26.0937 5.37329 27.359 6.64129C28.6257 7.90663 29.3337 9.61329 29.3337 11.4V21.9333C29.3337 25.6533 26.307 28.6666 22.5857 28.6666H9.41366C5.69233 28.6666 2.66699 25.6533 2.66699 21.9333V11.4C2.66699 7.67996 5.67899 4.66663 9.41366 4.66663H22.5857ZM24.707 13.3866L24.8137 13.28C25.1323 12.8933 25.1323 12.3333 24.799 11.9466C24.6137 11.748 24.359 11.6266 24.0937 11.6C23.8137 11.5853 23.547 11.68 23.3457 11.8666L17.3337 16.6666C16.5603 17.308 15.4523 17.308 14.667 16.6666L8.66699 11.8666C8.25233 11.56 7.67899 11.6 7.33366 11.96C6.97366 12.32 6.93366 12.8933 7.23899 13.2933L7.41366 13.4666L13.4803 18.2C14.227 18.7866 15.1323 19.1066 16.0803 19.1066C17.0257 19.1066 17.947 18.7866 18.6923 18.2L24.707 13.3866Z" fill="url(#paint0_linear_1231_25772)"/>
<defs>
<linearGradient id="paint0_linear_1231_25772" x1="29.3337" y1="28.6666" x2="-1.83041" y2="18.6269" gradientUnits="userSpaceOnUse">
<stop stop-color="#246BFD"/>
<stop offset="1" stop-color="#5089FF"/>
</linearGradient>
</defs>
</svg>
