<svg width="18" height="18" viewBox="0 0 18 18" fill="none" xmlns="http://www.w3.org/2000/svg">
<path fill-rule="evenodd" clip-rule="evenodd" d="M9.00033 17.3337C4.40033 17.3337 0.666992 13.6087 0.666992 9.00033C0.666992 4.40033 4.40033 0.666992 9.00033 0.666992C13.6087 0.666992 17.3337 4.40033 17.3337 9.00033C17.3337 13.6087 13.6087 17.3337 9.00033 17.3337ZM11.6587 12.092C11.7587 12.1503 11.867 12.1837 11.9837 12.1837C12.192 12.1837 12.4003 12.0753 12.517 11.8753C12.692 11.5837 12.6003 11.2003 12.3003 11.017L9.33366 9.25033V5.40033C9.33366 5.05033 9.05033 4.77533 8.70866 4.77533C8.36699 4.77533 8.08366 5.05033 8.08366 5.40033V9.60866C8.08366 9.82533 8.20033 10.0253 8.39199 10.142L11.6587 12.092Z" fill="#212121"/>
</svg>
