<svg width="424" height="287" viewBox="0 0 424 287" fill="none" xmlns="http://www.w3.org/2000/svg">
<g filter="url(#filter0_d_1241_26802)">
<g clip-path="url(#clip0_1241_26802)">
<rect x="20" y="16" width="380" height="239" rx="44" fill="url(#paint0_linear_1241_26802)"/>
<g opacity="0.32">
<path opacity="0.1" d="M262.831 -16.3608L391.137 60.0095V189.138L262.831 112.076V-16.3608Z" fill="white"/>
<path opacity="0.2" d="M518.993 -16.2837L390.691 60.0066V189L518.993 112.018V-16.2837Z" fill="white"/>
<path opacity="0.3" d="M262.831 -15.938L391.137 -93L519.442 -15.938V-15.3616L391.137 61.7004L262.831 -15.3616V-15.938Z" fill="white"/>
<path opacity="0.1" d="M-99 56.8936L29.3056 133.264V262.392L-99 185.33V56.8936Z" fill="white"/>
<path opacity="0.2" d="M157.162 56.9707L28.8601 133.261V262.254L157.162 185.273V56.9707Z" fill="white"/>
<path opacity="0.3" d="M-99 57.3164L29.3056 -19.7456L157.611 57.3164V57.8928L29.3056 134.955L-99 57.8928V57.3164Z" fill="white"/>
<path opacity="0.1" d="M209.111 15.7607L262.609 47.6037V101.444L209.111 69.3131V15.7607Z" fill="white"/>
<path opacity="0.2" d="M315.919 15.793L262.423 47.6026V101.387L315.919 69.2891V15.793Z" fill="white"/>
<path opacity="0.3" d="M209.111 15.9371L262.609 -16.1943L316.107 15.9371V16.1774L262.609 48.3088L209.111 16.1774V15.9371Z" fill="white"/>
<path opacity="0.1" d="M253.951 221.316L307.449 253.159V307L253.951 274.868V221.316Z" fill="white"/>
<path opacity="0.2" d="M360.759 221.348L307.263 253.158V306.942L360.759 274.844V221.348Z" fill="white"/>
<path opacity="0.3" d="M253.951 221.492L307.449 189.361L360.947 221.492V221.733L307.449 253.864L253.951 221.733V221.492Z" fill="white"/>
</g>
<path fill-rule="evenodd" clip-rule="evenodd" d="M334.896 51.8041C334.541 52.3446 334.362 52.9818 334.383 53.6283L334.381 53.6258C334.381 55.5463 335.597 56.5069 337.163 56.5126C337.744 56.5457 338.324 56.4415 338.856 56.2079C339.389 55.9743 339.859 55.6178 340.228 55.1681C340.505 55.6411 340.867 56.0593 341.295 56.4017C341.365 56.4393 341.443 56.4555 341.522 56.4478C341.6 56.4401 341.675 56.4089 341.735 56.3585L341.738 56.3615C342.111 56.0362 342.784 55.4479 343.162 55.1349C343.194 55.1034 343.22 55.0657 343.239 55.024C343.257 54.9823 343.267 54.9375 343.267 54.892C343.268 54.8466 343.26 54.8013 343.243 54.759C343.227 54.7168 343.201 54.6783 343.17 54.6456C342.73 54.183 342.482 53.5711 342.474 52.9328V50.052C342.474 49.9575 342.474 49.8636 342.475 49.7703V49.7702V49.7701V49.77L342.475 49.7678C342.481 48.6599 342.486 47.6472 341.653 46.8727C340.86 46.241 339.866 45.9149 338.853 45.9538C337.084 45.9538 335.106 46.607 334.695 48.7803C334.686 48.8241 334.686 48.8695 334.695 48.9133C334.705 48.9571 334.723 48.9983 334.748 49.0347C334.774 49.0712 334.808 49.1021 334.846 49.1251C334.884 49.1481 334.927 49.1625 334.972 49.1683L336.772 49.3605C336.856 49.3468 336.933 49.3065 336.992 49.2456C337.05 49.1846 337.087 49.1061 337.098 49.0222C337.17 48.6873 337.362 48.3906 337.636 48.1866C337.911 47.9826 338.251 47.8856 338.592 47.9136C338.791 47.9039 338.99 47.9427 339.171 48.0265C339.352 48.1103 339.51 48.2362 339.633 48.3944C339.839 48.8074 339.918 49.2727 339.861 49.7308V49.9662C339.684 49.9864 339.499 50.0054 339.308 50.025L339.307 50.025C338.332 50.1249 337.209 50.2399 336.364 50.6086C335.764 50.846 335.25 51.2635 334.896 51.8041ZM310.516 51.8071C310.162 52.3471 309.982 52.9837 310.001 53.6299V53.6293C310.001 55.5478 311.221 56.5069 312.786 56.5126C313.367 56.5462 313.948 56.4421 314.481 56.2085C315.014 55.9748 315.484 55.6182 315.853 55.1681C316.13 55.6416 316.491 56.0599 316.92 56.4017C316.989 56.44 317.067 56.4568 317.145 56.4493C317.224 56.4419 317.298 56.4106 317.359 56.36L317.365 56.363C317.735 56.0372 318.408 55.4505 318.79 55.1365C318.822 55.1046 318.848 55.0665 318.866 55.0246C318.884 54.9826 318.893 54.9377 318.893 54.8921C318.894 54.8464 318.885 54.8008 318.868 54.7586C318.851 54.7163 318.826 54.6781 318.793 54.6457C318.352 54.184 318.102 53.5719 318.094 52.9328V50.0521C318.094 49.9546 318.094 49.8577 318.095 49.7615C318.101 48.656 318.107 47.6458 317.276 46.8727C316.482 46.2408 315.488 45.9148 314.474 45.9538C312.705 45.9538 310.732 46.607 310.316 48.7803C310.307 48.824 310.308 48.8693 310.317 48.9128C310.326 48.9563 310.344 48.9975 310.37 49.0338C310.396 49.0701 310.429 49.1004 310.467 49.1236C310.505 49.1468 310.547 49.162 310.591 49.1683L312.399 49.3605C312.482 49.3459 312.558 49.3054 312.615 49.2445C312.673 49.1837 312.71 49.1055 312.72 49.0222C312.793 48.6874 312.985 48.3906 313.26 48.1866C313.535 47.9826 313.875 47.8858 314.216 47.9136C314.416 47.9042 314.614 47.9428 314.795 48.0265C314.977 48.1102 315.135 48.2364 315.258 48.3944C315.462 48.8081 315.54 49.273 315.483 49.7309V49.9688C315.301 49.9899 315.11 50.0097 314.913 50.0301H314.913C313.942 50.1308 312.826 50.2465 311.985 50.6126C311.384 50.8499 310.872 51.267 310.516 51.8071ZM356.799 46.0396C354.109 46.0396 352.618 48.3362 352.617 51.285C352.618 54.2185 354.089 56.5731 356.799 56.5752C359.402 56.5752 361.052 54.2797 361.052 51.3874C361.059 48.3939 359.562 46.0396 356.799 46.0396ZM347.805 62.3258C348.229 61.2815 349.17 58.9379 348.726 58.3685C348.289 57.8089 345.861 58.0913 344.711 58.2251L344.652 58.232C344.309 58.2726 344.259 57.975 344.565 57.7623C346.562 56.3691 349.835 56.7717 350.215 57.2403C350.594 57.709 350.118 60.9754 348.24 62.5285C348.161 62.601 348.061 62.6441 347.955 62.6513C347.807 62.6523 347.723 62.528 347.806 62.3237L347.805 62.3258ZM318.6 57.9572C318.273 57.6637 318.565 57.2627 318.96 57.4944C323.77 60.2264 329.206 61.6595 334.736 61.6534C338.87 61.6346 342.959 60.8033 346.772 59.2063C347.363 58.9602 347.854 59.5974 347.278 60.0213C343.787 62.5801 338.728 63.9424 334.37 63.9424C328.554 63.9743 322.933 61.8413 318.6 57.9572ZM355.356 50.9876V51.0224C355.356 52.1947 355.356 54.6196 356.799 54.6196C358.245 54.6196 358.314 52.6256 358.308 51.4091C358.339 50.5615 358.245 49.7136 358.03 48.8933C357.971 48.6194 357.816 48.3759 357.593 48.2073C357.37 48.0386 357.093 47.9566 356.814 47.9759C355.445 47.9764 355.356 49.8262 355.356 50.9856V50.9876ZM312.722 53.3085C312.722 54.1081 313.137 54.6469 313.851 54.6469C314.121 54.6357 314.383 54.552 314.609 54.4045C314.835 54.257 315.018 54.0513 315.137 53.8088C315.436 53.2015 315.558 52.5214 315.486 51.848V51.4495C314.14 51.447 312.72 51.7323 312.72 53.3059L312.722 53.3085ZM337.095 53.3086C337.095 54.1083 337.513 54.6471 338.228 54.6471C338.498 54.6352 338.759 54.5512 338.984 54.4037C339.21 54.2563 339.392 54.0509 339.512 53.809C339.811 53.2017 339.932 52.5216 339.861 51.8482V51.4497C338.513 51.4472 337.093 51.7325 337.093 53.3061L337.095 53.3086ZM367.643 56.2883C367.702 56.3429 367.779 56.3754 367.859 56.3807L369.728 56.3847C369.813 56.3851 369.896 56.3553 369.962 56.3004C370.028 56.2454 370.072 56.169 370.087 56.0846V50.1139V50.111C370.087 49.1934 370.087 47.9207 369.6 47.1609C369.366 46.8004 369.043 46.5071 368.662 46.3107C368.28 46.1143 367.854 46.0213 367.426 46.0412C366.144 46.0412 365.411 46.6607 364.893 47.9563H364.864V46.5074C364.843 46.4331 364.801 46.3668 364.741 46.3187C364.681 46.2706 364.607 46.2435 364.53 46.2405H362.807C362.719 46.2378 362.634 46.2678 362.567 46.3247C362.501 46.3818 362.458 46.4617 362.447 46.5486L362.449 56.0359C362.451 56.1254 362.487 56.2112 362.549 56.2753C362.612 56.3394 362.697 56.3769 362.786 56.3807H364.634C364.68 56.382 364.726 56.3742 364.77 56.3576C364.814 56.3409 364.853 56.3159 364.887 56.2838C364.921 56.2518 364.948 56.2134 364.967 56.1709C364.986 56.1283 364.996 56.0825 364.998 56.0359V50.9314C364.962 50.3172 365.063 49.7026 365.295 49.1327C365.382 48.9159 365.531 48.7292 365.722 48.5947C365.914 48.4603 366.14 48.3835 366.373 48.3744C367.554 48.3744 367.542 49.6616 367.533 50.6756C367.532 50.7625 367.531 50.8475 367.531 50.9294V56.0805C367.544 56.1604 367.583 56.2338 367.643 56.2883ZM330.544 56.3769C330.455 56.3721 330.371 56.3341 330.309 56.2705C330.247 56.207 330.211 56.1224 330.209 56.0336V51.0054C330.236 50.4121 330.219 49.8175 330.158 49.2268C330.12 48.9739 329.983 48.7459 329.779 48.5929C329.574 48.4401 329.317 48.3747 329.065 48.4108C328.824 48.4178 328.59 48.4949 328.393 48.6331C328.195 48.7713 328.043 48.9642 327.953 49.1882C327.799 49.7808 327.741 50.3944 327.781 51.0054V56.0336C327.78 56.0798 327.77 56.1253 327.752 56.1676C327.733 56.2099 327.706 56.2482 327.672 56.28C327.639 56.3119 327.6 56.3367 327.557 56.3533C327.514 56.37 327.468 56.3781 327.422 56.3769H325.565C325.476 56.3728 325.392 56.3352 325.33 56.2715C325.267 56.2078 325.231 56.1228 325.229 56.0336V51.0054C325.229 50.8993 325.231 50.7881 325.233 50.674C325.248 49.6507 325.268 48.3912 324.08 48.3912C322.795 48.3912 322.797 49.7973 322.799 50.8812L322.799 51.0054V56.0346C322.798 56.0807 322.788 56.126 322.769 56.1682C322.751 56.2103 322.724 56.2483 322.691 56.28C322.657 56.3118 322.618 56.3368 322.575 56.3533C322.531 56.3699 322.486 56.3781 322.44 56.3769H320.579C320.495 56.3742 320.415 56.3413 320.354 56.2841C320.293 56.2268 320.254 56.1488 320.246 56.0653V46.581C320.247 46.5349 320.257 46.4897 320.276 46.4475C320.294 46.4053 320.321 46.3673 320.354 46.3356C320.388 46.3038 320.427 46.2789 320.47 46.2623C320.513 46.2458 320.559 46.2375 320.605 46.2387H322.338C322.424 46.241 322.505 46.2748 322.567 46.3335C322.63 46.3923 322.669 46.472 322.676 46.5574V47.795H322.708C322.863 47.2716 323.188 46.8147 323.632 46.4966C324.075 46.1786 324.611 46.0174 325.156 46.0384C326.32 46.0384 327.05 46.5991 327.569 47.795C327.745 47.3434 328.037 46.9461 328.415 46.6432C328.793 46.3403 329.244 46.1425 329.723 46.0696C330.202 45.9967 330.691 46.051 331.142 46.2277C331.593 46.4042 331.99 46.6971 332.291 47.0758C332.795 47.7588 332.779 48.7077 332.765 49.6045C332.762 49.7544 332.76 49.9029 332.76 50.0484L332.758 56.0336C332.757 56.0798 332.746 56.1254 332.727 56.1676C332.709 56.2099 332.682 56.2477 332.649 56.2796C332.615 56.3114 332.576 56.3367 332.533 56.3533C332.49 56.37 332.444 56.378 332.398 56.3769H330.544ZM344.388 54.4172V55.7943L344.386 55.7923C344.388 55.8782 344.422 55.9601 344.48 56.0232C344.539 56.0862 344.618 56.1262 344.703 56.1351C344.744 56.1349 344.785 56.1238 344.821 56.1035C345.819 55.5903 346.925 55.3221 348.047 55.3206C349.168 55.3191 350.275 55.5845 351.274 56.095C351.324 56.1153 351.379 56.123 351.433 56.1171C351.487 56.1111 351.538 56.0917 351.583 56.0608C351.627 56.03 351.664 55.9887 351.688 55.9404C351.713 55.8921 351.725 55.8381 351.724 55.7838V54.3354C351.72 54.2267 351.688 54.1205 351.63 54.0283C351.573 53.936 351.492 53.8607 351.396 53.8094C350.321 53.2549 349.118 52.998 347.91 53.0657L351.081 48.573C351.376 48.1685 351.543 47.9161 351.543 47.7213V46.5585C351.544 46.5122 351.535 46.4667 351.517 46.424C351.499 46.3813 351.473 46.3423 351.44 46.31C351.407 46.2779 351.367 46.2527 351.324 46.2363C351.281 46.2199 351.235 46.2126 351.188 46.2147H345.08C345.035 46.2131 344.989 46.2211 344.947 46.2378C344.904 46.2545 344.866 46.2798 344.833 46.3121C344.801 46.3443 344.776 46.3826 344.759 46.425C344.742 46.4674 344.734 46.5129 344.736 46.5585V47.916C344.735 47.9621 344.743 48.0075 344.761 48.05C344.778 48.0926 344.805 48.131 344.838 48.1629C344.871 48.1949 344.91 48.2201 344.953 48.2362C344.996 48.2523 345.042 48.2593 345.088 48.2568H348.281L344.612 53.4862C344.446 53.7674 344.368 54.0914 344.388 54.4172Z" fill="white"/>
<path opacity="0.4" d="M350.459 225.049C360.414 225.049 368.484 216.979 368.484 207.023C368.484 197.068 360.414 188.998 350.459 188.998C340.503 188.998 332.433 197.068 332.433 207.023C332.433 216.979 340.503 225.049 350.459 225.049Z" fill="white"/>
<path opacity="0.859468" d="M328.026 225.049C337.982 225.049 346.052 216.979 346.052 207.023C346.052 197.068 337.982 188.998 328.026 188.998C318.071 188.998 310 197.068 310 207.023C310 216.979 318.071 225.049 328.026 225.049Z" fill="white"/>
<path d="M50.96 63L53.136 51.8H54.752L57.48 58.976L60.208 51.8H61.824L64 63H62.008L60.664 56.072L58.144 62.744H56.808L54.288 56.072L52.952 63H50.96ZM68.7894 63.208C68.0534 63.208 67.3814 63.0187 66.7734 62.64C66.1707 62.2613 65.688 61.7547 65.3254 61.12C64.968 60.48 64.7894 59.7733 64.7894 59C64.7894 58.4133 64.8934 57.8667 65.1014 57.36C65.3094 56.848 65.5947 56.4 65.9574 56.016C66.3254 55.6267 66.752 55.3227 67.2374 55.104C67.7227 54.8853 68.24 54.776 68.7894 54.776C69.5254 54.776 70.1947 54.9653 70.7974 55.344C71.4054 55.7227 71.888 56.232 72.2454 56.872C72.608 57.512 72.7894 58.2213 72.7894 59C72.7894 59.5813 72.6854 60.1253 72.4774 60.632C72.2694 61.1387 71.9814 61.5867 71.6134 61.976C71.2507 62.36 70.8267 62.6613 70.3414 62.88C69.8614 63.0987 69.344 63.208 68.7894 63.208ZM68.7894 61.256C69.1787 61.256 69.528 61.152 69.8374 60.944C70.1467 60.736 70.3894 60.4613 70.5654 60.12C70.7467 59.7787 70.8374 59.4053 70.8374 59C70.8374 58.584 70.744 58.2053 70.5574 57.864C70.376 57.5173 70.128 57.2427 69.8134 57.04C69.504 56.832 69.1627 56.728 68.7894 56.728C68.4054 56.728 68.0587 56.832 67.7494 57.04C67.44 57.248 67.1947 57.5253 67.0134 57.872C66.832 58.2187 66.7414 58.5947 66.7414 59C66.7414 59.4213 66.8347 59.8027 67.0214 60.144C67.208 60.4853 67.456 60.7573 67.7654 60.96C68.08 61.1573 68.4214 61.256 68.7894 61.256ZM79.2262 60.592L80.9862 61.544C80.6182 62.0453 80.1569 62.448 79.6023 62.752C79.0476 63.056 78.4422 63.208 77.7862 63.208C77.0502 63.208 76.3782 63.0187 75.7702 62.64C75.1676 62.2613 74.6849 61.7547 74.3222 61.12C73.9649 60.48 73.7862 59.7733 73.7862 59C73.7862 58.4133 73.8902 57.8667 74.0982 57.36C74.3062 56.848 74.5916 56.4 74.9542 56.016C75.3222 55.6267 75.7489 55.3227 76.2342 55.104C76.7196 54.8853 77.2369 54.776 77.7862 54.776C78.4422 54.776 79.0476 54.928 79.6023 55.232C80.1569 55.536 80.6182 55.944 80.9862 56.456L79.2262 57.4C79.0396 57.1867 78.8182 57.0213 78.5622 56.904C78.3116 56.7867 78.0529 56.728 77.7862 56.728C77.4022 56.728 77.0556 56.8347 76.7462 57.048C76.4369 57.256 76.1916 57.5333 76.0102 57.88C75.8289 58.2213 75.7382 58.5947 75.7382 59C75.7382 59.4 75.8289 59.7733 76.0102 60.12C76.1916 60.4613 76.4369 60.736 76.7462 60.944C77.0556 61.152 77.4022 61.256 77.7862 61.256C78.0636 61.256 78.3276 61.1973 78.5782 61.08C78.8289 60.9573 79.0449 60.7947 79.2262 60.592ZM88.438 55H90.39V63H88.43L88.35 62.008C88.126 62.3653 87.8327 62.656 87.47 62.88C87.1127 63.0987 86.6913 63.208 86.206 63.208C85.614 63.208 85.0593 63.096 84.542 62.872C84.0247 62.648 83.5687 62.3387 83.174 61.944C82.7793 61.5493 82.4727 61.0933 82.254 60.576C82.0353 60.0587 81.926 59.504 81.926 58.912C81.926 58.3413 82.03 57.8053 82.238 57.304C82.446 56.8027 82.7393 56.3627 83.118 55.984C83.4967 55.6053 83.934 55.3093 84.43 55.096C84.926 54.8827 85.4593 54.776 86.03 54.776C86.5633 54.776 87.038 54.8933 87.454 55.128C87.8753 55.3627 88.2327 55.6613 88.526 56.024L88.438 55ZM86.262 61.328C86.6887 61.328 87.0593 61.2187 87.374 61C87.6887 60.7813 87.926 60.4907 88.086 60.128C88.2513 59.76 88.318 59.3547 88.286 58.912C88.2487 58.496 88.126 58.12 87.918 57.784C87.71 57.4427 87.4433 57.1707 87.118 56.968C86.7927 56.7653 86.4273 56.664 86.022 56.664C85.6007 56.664 85.222 56.7733 84.886 56.992C84.5553 57.2107 84.2993 57.504 84.118 57.872C83.9367 58.2347 83.8647 58.64 83.902 59.088C83.9447 59.4987 84.078 59.8747 84.302 60.216C84.526 60.552 84.8087 60.8213 85.15 61.024C85.4967 61.2267 85.8673 61.328 86.262 61.328ZM97.374 56.984C97.23 56.888 97.0727 56.8107 96.902 56.752C96.7367 56.6933 96.5527 56.664 96.35 56.664C95.9607 56.664 95.6247 56.7653 95.342 56.968C95.0647 57.1707 94.8513 57.4427 94.702 57.784C94.5527 58.12 94.478 58.4933 94.478 58.904V63H92.51V55H94.462V55.944C94.7287 55.592 95.046 55.312 95.414 55.104C95.7873 54.896 96.2087 54.792 96.678 54.792C96.8593 54.792 97.0327 54.7973 97.198 54.808C97.3687 54.8187 97.5313 54.848 97.686 54.896L97.374 56.984ZM104.617 51H106.569V63H104.617V62C104.361 62.3573 104.039 62.648 103.649 62.872C103.26 63.096 102.809 63.208 102.297 63.208C101.716 63.208 101.172 63.0987 100.665 62.88C100.159 62.6613 99.7107 62.36 99.3214 61.976C98.9374 61.5867 98.636 61.1387 98.4174 60.632C98.1987 60.1253 98.0894 59.5813 98.0894 59C98.0894 58.4187 98.1987 57.8747 98.4174 57.368C98.636 56.8613 98.9374 56.416 99.3214 56.032C99.7107 55.6427 100.159 55.3387 100.665 55.12C101.172 54.9013 101.716 54.792 102.297 54.792C102.809 54.792 103.26 54.904 103.649 55.128C104.039 55.3467 104.361 55.6373 104.617 56V51ZM102.321 61.328C102.737 61.328 103.105 61.224 103.425 61.016C103.745 60.808 103.996 60.528 104.177 60.176C104.359 59.8187 104.449 59.4267 104.449 59C104.449 58.568 104.359 58.176 104.177 57.824C103.996 57.4667 103.743 57.184 103.417 56.976C103.097 56.768 102.732 56.664 102.321 56.664C101.911 56.664 101.537 56.7707 101.201 56.984C100.865 57.192 100.596 57.472 100.393 57.824C100.191 58.176 100.089 58.568 100.089 59C100.089 59.432 100.191 59.824 100.393 60.176C100.596 60.528 100.865 60.808 101.201 61.016C101.543 61.224 101.916 61.328 102.321 61.328Z" fill="white"/>
<path d="M55.928 135.608C54.808 135.608 53.856 135.224 53.072 134.456C52.304 133.672 51.92 132.72 51.92 131.6C51.92 130.48 52.304 129.536 53.072 128.768C53.856 127.984 54.808 127.592 55.928 127.592C57.048 127.592 58 127.984 58.784 128.768C59.568 129.536 59.96 130.48 59.96 131.6C59.96 132.72 59.568 133.672 58.784 134.456C58 135.224 57.048 135.608 55.928 135.608ZM67.7874 135.608C66.6674 135.608 65.7154 135.224 64.9314 134.456C64.1634 133.672 63.7794 132.72 63.7794 131.6C63.7794 130.48 64.1634 129.536 64.9314 128.768C65.7154 127.984 66.6674 127.592 67.7874 127.592C68.9074 127.592 69.8594 127.984 70.6434 128.768C71.4274 129.536 71.8194 130.48 71.8194 131.6C71.8194 132.72 71.4274 133.672 70.6434 134.456C69.8594 135.224 68.9074 135.608 67.7874 135.608ZM79.6468 135.608C78.5268 135.608 77.5748 135.224 76.7908 134.456C76.0228 133.672 75.6388 132.72 75.6388 131.6C75.6388 130.48 76.0228 129.536 76.7908 128.768C77.5748 127.984 78.5268 127.592 79.6468 127.592C80.7668 127.592 81.7188 127.984 82.5028 128.768C83.2868 129.536 83.6788 130.48 83.6788 131.6C83.6788 132.72 83.2868 133.672 82.5028 134.456C81.7188 135.224 80.7668 135.608 79.6468 135.608ZM91.5061 135.608C90.3861 135.608 89.4341 135.224 88.6501 134.456C87.8821 133.672 87.4981 132.72 87.4981 131.6C87.4981 130.48 87.8821 129.536 88.6501 128.768C89.4341 127.984 90.3861 127.592 91.5061 127.592C92.6261 127.592 93.5781 127.984 94.3621 128.768C95.1461 129.536 95.5381 130.48 95.5381 131.6C95.5381 132.72 95.1461 133.672 94.3621 134.456C93.5781 135.224 92.6261 135.608 91.5061 135.608ZM114.897 135.608C113.777 135.608 112.825 135.224 112.041 134.456C111.273 133.672 110.889 132.72 110.889 131.6C110.889 130.48 111.273 129.536 112.041 128.768C112.825 127.984 113.777 127.592 114.897 127.592C116.017 127.592 116.969 127.984 117.753 128.768C118.537 129.536 118.929 130.48 118.929 131.6C118.929 132.72 118.537 133.672 117.753 134.456C116.969 135.224 116.017 135.608 114.897 135.608ZM126.756 135.608C125.636 135.608 124.684 135.224 123.9 134.456C123.132 133.672 122.748 132.72 122.748 131.6C122.748 130.48 123.132 129.536 123.9 128.768C124.684 127.984 125.636 127.592 126.756 127.592C127.876 127.592 128.828 127.984 129.612 128.768C130.396 129.536 130.788 130.48 130.788 131.6C130.788 132.72 130.396 133.672 129.612 134.456C128.828 135.224 127.876 135.608 126.756 135.608ZM138.616 135.608C137.496 135.608 136.544 135.224 135.76 134.456C134.992 133.672 134.608 132.72 134.608 131.6C134.608 130.48 134.992 129.536 135.76 128.768C136.544 127.984 137.496 127.592 138.616 127.592C139.736 127.592 140.688 127.984 141.472 128.768C142.256 129.536 142.648 130.48 142.648 131.6C142.648 132.72 142.256 133.672 141.472 134.456C140.688 135.224 139.736 135.608 138.616 135.608ZM150.475 135.608C149.355 135.608 148.403 135.224 147.619 134.456C146.851 133.672 146.467 132.72 146.467 131.6C146.467 130.48 146.851 129.536 147.619 128.768C148.403 127.984 149.355 127.592 150.475 127.592C151.595 127.592 152.547 127.984 153.331 128.768C154.115 129.536 154.507 130.48 154.507 131.6C154.507 132.72 154.115 133.672 153.331 134.456C152.547 135.224 151.595 135.608 150.475 135.608ZM173.866 135.608C172.746 135.608 171.794 135.224 171.01 134.456C170.242 133.672 169.858 132.72 169.858 131.6C169.858 130.48 170.242 129.536 171.01 128.768C171.794 127.984 172.746 127.592 173.866 127.592C174.986 127.592 175.938 127.984 176.722 128.768C177.506 129.536 177.898 130.48 177.898 131.6C177.898 132.72 177.506 133.672 176.722 134.456C175.938 135.224 174.986 135.608 173.866 135.608ZM185.725 135.608C184.605 135.608 183.653 135.224 182.869 134.456C182.101 133.672 181.717 132.72 181.717 131.6C181.717 130.48 182.101 129.536 182.869 128.768C183.653 127.984 184.605 127.592 185.725 127.592C186.845 127.592 187.797 127.984 188.581 128.768C189.365 129.536 189.757 130.48 189.757 131.6C189.757 132.72 189.365 133.672 188.581 134.456C187.797 135.224 186.845 135.608 185.725 135.608ZM197.584 135.608C196.464 135.608 195.512 135.224 194.728 134.456C193.96 133.672 193.576 132.72 193.576 131.6C193.576 130.48 193.96 129.536 194.728 128.768C195.512 127.984 196.464 127.592 197.584 127.592C198.704 127.592 199.656 127.984 200.44 128.768C201.224 129.536 201.616 130.48 201.616 131.6C201.616 132.72 201.224 133.672 200.44 134.456C199.656 135.224 198.704 135.608 197.584 135.608ZM209.444 135.608C208.324 135.608 207.372 135.224 206.588 134.456C205.82 133.672 205.436 132.72 205.436 131.6C205.436 130.48 205.82 129.536 206.588 128.768C207.372 127.984 208.324 127.592 209.444 127.592C210.564 127.592 211.516 127.984 212.3 128.768C213.084 129.536 213.476 130.48 213.476 131.6C213.476 132.72 213.084 133.672 212.3 134.456C211.516 135.224 210.564 135.608 209.444 135.608ZM232.834 135.608C231.714 135.608 230.762 135.224 229.978 134.456C229.21 133.672 228.826 132.72 228.826 131.6C228.826 130.48 229.21 129.536 229.978 128.768C230.762 127.984 231.714 127.592 232.834 127.592C233.954 127.592 234.906 127.984 235.69 128.768C236.474 129.536 236.866 130.48 236.866 131.6C236.866 132.72 236.474 133.672 235.69 134.456C234.906 135.224 233.954 135.608 232.834 135.608ZM244.694 135.608C243.574 135.608 242.622 135.224 241.838 134.456C241.07 133.672 240.686 132.72 240.686 131.6C240.686 130.48 241.07 129.536 241.838 128.768C242.622 127.984 243.574 127.592 244.694 127.592C245.814 127.592 246.766 127.984 247.55 128.768C248.334 129.536 248.726 130.48 248.726 131.6C248.726 132.72 248.334 133.672 247.55 134.456C246.766 135.224 245.814 135.608 244.694 135.608ZM256.553 135.608C255.433 135.608 254.481 135.224 253.697 134.456C252.929 133.672 252.545 132.72 252.545 131.6C252.545 130.48 252.929 129.536 253.697 128.768C254.481 127.984 255.433 127.592 256.553 127.592C257.673 127.592 258.625 127.984 259.409 128.768C260.193 129.536 260.585 130.48 260.585 131.6C260.585 132.72 260.193 133.672 259.409 134.456C258.625 135.224 257.673 135.608 256.553 135.608ZM268.412 135.608C267.292 135.608 266.34 135.224 265.556 134.456C264.788 133.672 264.404 132.72 264.404 131.6C264.404 130.48 264.788 129.536 265.556 128.768C266.34 127.984 267.292 127.592 268.412 127.592C269.532 127.592 270.484 127.984 271.268 128.768C272.052 129.536 272.444 130.48 272.444 131.6C272.444 132.72 272.052 133.672 271.268 134.456C270.484 135.224 269.532 135.608 268.412 135.608Z" fill="white"/>
<path d="M53.84 200.13C53.3667 200.13 52.9217 200.037 52.505 199.85C52.0883 199.66 51.7217 199.4 51.405 199.07C51.0917 198.737 50.845 198.35 50.665 197.91C50.4883 197.47 50.4 197 50.4 196.5C50.4 196 50.4883 195.53 50.665 195.09C50.845 194.65 51.0917 194.265 51.405 193.935C51.7217 193.602 52.0883 193.342 52.505 193.155C52.9217 192.965 53.3667 192.87 53.84 192.87C54.4067 192.87 54.9283 193.002 55.405 193.265C55.8817 193.528 56.2767 193.878 56.59 194.315L55.845 194.715C55.6117 194.408 55.3167 194.165 54.96 193.985C54.6067 193.802 54.2333 193.71 53.84 193.71C53.4767 193.71 53.1367 193.783 52.82 193.93C52.5067 194.077 52.2317 194.278 51.995 194.535C51.7583 194.792 51.5733 195.088 51.44 195.425C51.3067 195.762 51.24 196.12 51.24 196.5C51.24 196.883 51.3067 197.243 51.44 197.58C51.5767 197.917 51.7633 198.213 52 198.47C52.24 198.727 52.5167 198.928 52.83 199.075C53.1467 199.218 53.4833 199.29 53.84 199.29C54.2467 199.29 54.6233 199.198 54.97 199.015C55.32 198.828 55.6117 198.585 55.845 198.285L56.59 198.69C56.2767 199.127 55.8817 199.477 55.405 199.74C54.9283 200 54.4067 200.13 53.84 200.13ZM61.5387 195H62.3787V200H61.5387L61.5038 199.155C61.3471 199.445 61.1304 199.68 60.8538 199.86C60.5804 200.04 60.2537 200.13 59.8737 200.13C59.5071 200.13 59.1637 200.062 58.8437 199.925C58.5237 199.785 58.2404 199.593 57.9937 199.35C57.7504 199.103 57.5604 198.82 57.4237 198.5C57.2871 198.18 57.2187 197.835 57.2187 197.465C57.2187 197.108 57.2854 196.772 57.4187 196.455C57.5521 196.138 57.7371 195.862 57.9737 195.625C58.2137 195.385 58.4904 195.198 58.8037 195.065C59.1171 194.928 59.4537 194.86 59.8138 194.86C60.2071 194.86 60.5521 194.953 60.8487 195.14C61.1454 195.323 61.3854 195.562 61.5688 195.855L61.5387 195ZM59.8587 199.315C60.1887 199.315 60.4738 199.235 60.7138 199.075C60.9571 198.912 61.1437 198.692 61.2738 198.415C61.4071 198.138 61.4738 197.833 61.4738 197.5C61.4738 197.16 61.4071 196.853 61.2738 196.58C61.1404 196.303 60.9521 196.085 60.7087 195.925C60.4688 195.762 60.1854 195.68 59.8587 195.68C59.5287 195.68 59.2287 195.762 58.9587 195.925C58.6887 196.088 58.4737 196.308 58.3137 196.585C58.1571 196.858 58.0787 197.163 58.0787 197.5C58.0787 197.837 58.1604 198.143 58.3237 198.42C58.4871 198.693 58.7037 198.912 58.9737 199.075C59.2437 199.235 59.5387 199.315 59.8587 199.315ZM63.5781 200V195H64.4181V195.625C64.5948 195.392 64.8181 195.207 65.0881 195.07C65.3581 194.93 65.6515 194.86 65.9681 194.86C66.1615 194.86 66.3481 194.885 66.5281 194.935L66.1881 195.775C66.0515 195.732 65.9181 195.71 65.7881 195.71C65.5381 195.71 65.3081 195.772 65.0981 195.895C64.8915 196.015 64.7265 196.178 64.6031 196.385C64.4798 196.592 64.4181 196.822 64.4181 197.075V200H63.5781ZM71.1137 192.5H71.9537V200H71.1137V199.15C70.9437 199.443 70.7153 199.68 70.4287 199.86C70.142 200.04 69.8053 200.13 69.4187 200.13C69.0553 200.13 68.7153 200.062 68.3987 199.925C68.082 199.788 67.802 199.6 67.5587 199.36C67.3187 199.117 67.1303 198.837 66.9937 198.52C66.857 198.203 66.7887 197.863 66.7887 197.5C66.7887 197.137 66.857 196.797 66.9937 196.48C67.1303 196.16 67.3187 195.88 67.5587 195.64C67.802 195.397 68.082 195.207 68.3987 195.07C68.7153 194.933 69.0553 194.865 69.4187 194.865C69.8053 194.865 70.142 194.955 70.4287 195.135C70.7153 195.315 70.9437 195.552 71.1137 195.845V192.5ZM69.4287 199.315C69.7587 199.315 70.0437 199.235 70.2837 199.075C70.527 198.912 70.7137 198.692 70.8437 198.415C70.977 198.138 71.0437 197.833 71.0437 197.5C71.0437 197.16 70.977 196.853 70.8437 196.58C70.7103 196.303 70.522 196.085 70.2787 195.925C70.0387 195.762 69.7553 195.68 69.4287 195.68C69.0987 195.68 68.7987 195.762 68.5287 195.925C68.262 196.088 68.0487 196.308 67.8887 196.585C67.7287 196.858 67.6487 197.163 67.6487 197.5C67.6487 197.837 67.7303 198.143 67.8937 198.42C68.057 198.693 68.2737 198.912 68.5437 199.075C68.8137 199.235 69.1087 199.315 69.4287 199.315ZM80.2605 193H81.1005V200H80.2605V196.67H76.7955V200H75.9555V193H76.7955V195.83H80.2605V193ZM84.6543 200.13C84.1943 200.13 83.7743 200.012 83.3943 199.775C83.0176 199.538 82.716 199.222 82.4893 198.825C82.266 198.425 82.1543 197.983 82.1543 197.5C82.1543 197.133 82.2193 196.792 82.3493 196.475C82.4793 196.155 82.6576 195.875 82.8843 195.635C83.1143 195.392 83.381 195.202 83.6843 195.065C83.9876 194.928 84.311 194.86 84.6543 194.86C85.1143 194.86 85.5326 194.978 85.9093 195.215C86.2893 195.452 86.591 195.77 86.8143 196.17C87.041 196.57 87.1543 197.013 87.1543 197.5C87.1543 197.863 87.0893 198.203 86.9593 198.52C86.8293 198.837 86.6493 199.117 86.4193 199.36C86.1926 199.6 85.9276 199.788 85.6243 199.925C85.3243 200.062 85.001 200.13 84.6543 200.13ZM84.6543 199.29C84.9676 199.29 85.2493 199.208 85.4993 199.045C85.7526 198.878 85.951 198.66 86.0943 198.39C86.241 198.117 86.3143 197.82 86.3143 197.5C86.3143 197.173 86.2393 196.873 86.0893 196.6C85.9426 196.327 85.7443 196.108 85.4943 195.945C85.2443 195.782 84.9643 195.7 84.6543 195.7C84.341 195.7 84.0593 195.783 83.8093 195.95C83.5593 196.113 83.361 196.332 83.2143 196.605C83.0676 196.878 82.9943 197.177 82.9943 197.5C82.9943 197.833 83.0693 198.137 83.2193 198.41C83.3693 198.68 83.571 198.895 83.8243 199.055C84.0776 199.212 84.3543 199.29 84.6543 199.29ZM88.1328 200V192.5H88.9728V200H88.1328ZM94.35 192.5H95.19V200H94.35V199.15C94.18 199.443 93.9517 199.68 93.665 199.86C93.3783 200.04 93.0417 200.13 92.655 200.13C92.2917 200.13 91.9517 200.062 91.635 199.925C91.3183 199.788 91.0383 199.6 90.795 199.36C90.555 199.117 90.3667 198.837 90.23 198.52C90.0933 198.203 90.025 197.863 90.025 197.5C90.025 197.137 90.0933 196.797 90.23 196.48C90.3667 196.16 90.555 195.88 90.795 195.64C91.0383 195.397 91.3183 195.207 91.635 195.07C91.9517 194.933 92.2917 194.865 92.655 194.865C93.0417 194.865 93.3783 194.955 93.665 195.135C93.9517 195.315 94.18 195.552 94.35 195.845V192.5ZM92.665 199.315C92.995 199.315 93.28 199.235 93.52 199.075C93.7633 198.912 93.95 198.692 94.08 198.415C94.2133 198.138 94.28 197.833 94.28 197.5C94.28 197.16 94.2133 196.853 94.08 196.58C93.9467 196.303 93.7583 196.085 93.515 195.925C93.275 195.762 92.9917 195.68 92.665 195.68C92.335 195.68 92.035 195.762 91.765 195.925C91.4983 196.088 91.285 196.308 91.125 196.585C90.965 196.858 90.885 197.163 90.885 197.5C90.885 197.837 90.9667 198.143 91.13 198.42C91.2933 198.693 91.51 198.912 91.78 199.075C92.05 199.235 92.345 199.315 92.665 199.315ZM98.7406 200.13C98.2806 200.13 97.8606 200.012 97.4806 199.775C97.104 199.538 96.8023 199.222 96.5756 198.825C96.3523 198.425 96.2406 197.983 96.2406 197.5C96.2406 197.133 96.3056 196.792 96.4356 196.475C96.5656 196.155 96.744 195.875 96.9706 195.635C97.2006 195.392 97.4673 195.202 97.7706 195.065C98.074 194.928 98.3973 194.86 98.7406 194.86C99.1173 194.86 99.4623 194.937 99.7756 195.09C100.092 195.24 100.362 195.45 100.586 195.72C100.812 195.99 100.981 196.303 101.091 196.66C101.204 197.017 101.246 197.398 101.216 197.805H97.1356C97.1756 198.088 97.269 198.342 97.4156 198.565C97.5623 198.785 97.749 198.96 97.9756 199.09C98.2056 199.22 98.4606 199.287 98.7406 199.29C99.0406 199.29 99.3123 199.213 99.5556 199.06C99.799 198.903 99.9956 198.69 100.146 198.42L101.001 198.62C100.801 199.063 100.499 199.427 100.096 199.71C99.6923 199.99 99.2406 200.13 98.7406 200.13ZM97.1106 197.145H100.371C100.344 196.865 100.254 196.61 100.101 196.38C99.9473 196.147 99.7523 195.96 99.5156 195.82C99.279 195.68 99.0206 195.61 98.7406 195.61C98.4606 195.61 98.204 195.678 97.9706 195.815C97.7373 195.952 97.544 196.137 97.3906 196.37C97.2406 196.6 97.1473 196.858 97.1106 197.145ZM102.258 200V195H103.098V195.625C103.275 195.392 103.498 195.207 103.768 195.07C104.038 194.93 104.332 194.86 104.648 194.86C104.842 194.86 105.028 194.885 105.208 194.935L104.868 195.775C104.732 195.732 104.598 195.71 104.468 195.71C104.218 195.71 103.988 195.772 103.778 195.895C103.572 196.015 103.407 196.178 103.283 196.385C103.16 196.592 103.098 196.822 103.098 197.075V200H102.258ZM113.133 196.89V200H112.293V197.075C112.293 196.822 112.231 196.592 112.108 196.385C111.985 196.178 111.82 196.015 111.613 195.895C111.406 195.772 111.176 195.71 110.923 195.71C110.673 195.71 110.443 195.772 110.233 195.895C110.026 196.015 109.861 196.178 109.738 196.385C109.615 196.592 109.553 196.822 109.553 197.075V200H108.713V195H109.553V195.625C109.73 195.392 109.953 195.207 110.223 195.07C110.493 194.93 110.786 194.86 111.103 194.86C111.476 194.86 111.816 194.952 112.123 195.135C112.433 195.315 112.678 195.558 112.858 195.865C113.041 196.172 113.133 196.513 113.133 196.89ZM118.255 195H119.095V200H118.255L118.22 199.155C118.063 199.445 117.847 199.68 117.57 199.86C117.297 200.04 116.97 200.13 116.59 200.13C116.223 200.13 115.88 200.062 115.56 199.925C115.24 199.785 114.957 199.593 114.71 199.35C114.467 199.103 114.277 198.82 114.14 198.5C114.003 198.18 113.935 197.835 113.935 197.465C113.935 197.108 114.002 196.772 114.135 196.455C114.268 196.138 114.453 195.862 114.69 195.625C114.93 195.385 115.207 195.198 115.52 195.065C115.833 194.928 116.17 194.86 116.53 194.86C116.923 194.86 117.268 194.953 117.565 195.14C117.862 195.323 118.102 195.562 118.285 195.855L118.255 195ZM116.575 199.315C116.905 199.315 117.19 199.235 117.43 199.075C117.673 198.912 117.86 198.692 117.99 198.415C118.123 198.138 118.19 197.833 118.19 197.5C118.19 197.16 118.123 196.853 117.99 196.58C117.857 196.303 117.668 196.085 117.425 195.925C117.185 195.762 116.902 195.68 116.575 195.68C116.245 195.68 115.945 195.762 115.675 195.925C115.405 196.088 115.19 196.308 115.03 196.585C114.873 196.858 114.795 197.163 114.795 197.5C114.795 197.837 114.877 198.143 115.04 198.42C115.203 198.693 115.42 198.912 115.69 199.075C115.96 199.235 116.255 199.315 116.575 199.315ZM120.295 200V195H121.135V195.625C121.311 195.392 121.533 195.207 121.8 195.07C122.07 194.93 122.363 194.86 122.68 194.86C123.05 194.86 123.388 194.95 123.695 195.13C124.001 195.31 124.243 195.548 124.42 195.845C124.596 195.548 124.836 195.31 125.14 195.13C125.446 194.95 125.783 194.86 126.15 194.86C126.526 194.86 126.868 194.952 127.175 195.135C127.481 195.315 127.725 195.558 127.905 195.865C128.088 196.172 128.18 196.513 128.18 196.89V200H127.34V197.09C127.34 196.843 127.28 196.615 127.16 196.405C127.04 196.195 126.878 196.027 126.675 195.9C126.471 195.773 126.246 195.71 126 195.71C125.753 195.71 125.528 195.77 125.325 195.89C125.121 196.007 124.96 196.17 124.84 196.38C124.72 196.587 124.66 196.823 124.66 197.09V200H123.82V197.09C123.82 196.823 123.76 196.587 123.64 196.38C123.52 196.17 123.356 196.007 123.15 195.89C122.946 195.77 122.721 195.71 122.475 195.71C122.231 195.71 122.006 195.773 121.8 195.9C121.596 196.027 121.435 196.195 121.315 196.405C121.195 196.615 121.135 196.843 121.135 197.09V200H120.295ZM131.484 200.13C131.024 200.13 130.604 200.012 130.224 199.775C129.847 199.538 129.545 199.222 129.319 198.825C129.095 198.425 128.984 197.983 128.984 197.5C128.984 197.133 129.049 196.792 129.179 196.475C129.309 196.155 129.487 195.875 129.714 195.635C129.944 195.392 130.21 195.202 130.514 195.065C130.817 194.928 131.14 194.86 131.484 194.86C131.86 194.86 132.205 194.937 132.519 195.09C132.835 195.24 133.105 195.45 133.329 195.72C133.555 195.99 133.724 196.303 133.834 196.66C133.947 197.017 133.989 197.398 133.959 197.805H129.879C129.919 198.088 130.012 198.342 130.159 198.565C130.305 198.785 130.492 198.96 130.719 199.09C130.949 199.22 131.204 199.287 131.484 199.29C131.784 199.29 132.055 199.213 132.299 199.06C132.542 198.903 132.739 198.69 132.889 198.42L133.744 198.62C133.544 199.063 133.242 199.427 132.839 199.71C132.435 199.99 131.984 200.13 131.484 200.13ZM129.854 197.145H133.114C133.087 196.865 132.997 196.61 132.844 196.38C132.69 196.147 132.495 195.96 132.259 195.82C132.022 195.68 131.764 195.61 131.484 195.61C131.204 195.61 130.947 195.678 130.714 195.815C130.48 195.952 130.287 196.137 130.134 196.37C129.984 196.6 129.89 196.858 129.854 197.145Z" fill="white"/>
<path d="M51.575 217.829C51.295 217.829 51.0547 217.731 50.854 217.535C50.658 217.334 50.56 217.087 50.56 216.793C50.56 216.513 50.658 216.273 50.854 216.072C51.0547 215.871 51.295 215.771 51.575 215.771C51.8643 215.771 52.107 215.871 52.303 216.072C52.5037 216.273 52.604 216.513 52.604 216.793C52.604 217.087 52.5037 217.334 52.303 217.535C52.107 217.731 51.8643 217.829 51.575 217.829ZM54.9332 217.829C54.6532 217.829 54.4129 217.731 54.2122 217.535C54.0162 217.334 53.9182 217.087 53.9182 216.793C53.9182 216.513 54.0162 216.273 54.2122 216.072C54.4129 215.871 54.6532 215.771 54.9332 215.771C55.2225 215.771 55.4652 215.871 55.6612 216.072C55.8619 216.273 55.9622 216.513 55.9622 216.793C55.9622 217.087 55.8619 217.334 55.6612 217.535C55.4652 217.731 55.2225 217.829 54.9332 217.829ZM58.2914 217.829C58.0114 217.829 57.7711 217.731 57.5704 217.535C57.3744 217.334 57.2764 217.087 57.2764 216.793C57.2764 216.513 57.3744 216.273 57.5704 216.072C57.7711 215.871 58.0114 215.771 58.2914 215.771C58.5807 215.771 58.8234 215.871 59.0194 216.072C59.2201 216.273 59.3204 216.513 59.3204 216.793C59.3204 217.087 59.2201 217.334 59.0194 217.535C58.8234 217.731 58.5807 217.829 58.2914 217.829ZM61.6496 217.829C61.3696 217.829 61.1293 217.731 60.9286 217.535C60.7326 217.334 60.6346 217.087 60.6346 216.793C60.6346 216.513 60.7326 216.273 60.9286 216.072C61.1293 215.871 61.3696 215.771 61.6496 215.771C61.9389 215.771 62.1816 215.871 62.3776 216.072C62.5783 216.273 62.6786 216.513 62.6786 216.793C62.6786 217.087 62.5783 217.334 62.3776 217.535C62.1816 217.731 61.9389 217.829 61.6496 217.829ZM68.5711 217.829C68.2911 217.829 68.0508 217.731 67.8501 217.535C67.6541 217.334 67.5561 217.087 67.5561 216.793C67.5561 216.513 67.6541 216.273 67.8501 216.072C68.0508 215.871 68.2911 215.771 68.5711 215.771C68.8604 215.771 69.1031 215.871 69.2991 216.072C69.4998 216.273 69.6001 216.513 69.6001 216.793C69.6001 217.087 69.4998 217.334 69.2991 217.535C69.1031 217.731 68.8604 217.829 68.5711 217.829ZM71.9293 217.829C71.6493 217.829 71.409 217.731 71.2083 217.535C71.0123 217.334 70.9143 217.087 70.9143 216.793C70.9143 216.513 71.0123 216.273 71.2083 216.072C71.409 215.871 71.6493 215.771 71.9293 215.771C72.2186 215.771 72.4613 215.871 72.6573 216.072C72.858 216.273 72.9583 216.513 72.9583 216.793C72.9583 217.087 72.858 217.334 72.6573 217.535C72.4613 217.731 72.2186 217.829 71.9293 217.829ZM75.2875 217.829C75.0075 217.829 74.7672 217.731 74.5665 217.535C74.3705 217.334 74.2725 217.087 74.2725 216.793C74.2725 216.513 74.3705 216.273 74.5665 216.072C74.7672 215.871 75.0075 215.771 75.2875 215.771C75.5768 215.771 75.8195 215.871 76.0155 216.072C76.2162 216.273 76.3165 216.513 76.3165 216.793C76.3165 217.087 76.2162 217.334 76.0155 217.535C75.8195 217.731 75.5768 217.829 75.2875 217.829ZM78.6457 217.829C78.3657 217.829 78.1254 217.731 77.9247 217.535C77.7287 217.334 77.6307 217.087 77.6307 216.793C77.6307 216.513 77.7287 216.273 77.9247 216.072C78.1254 215.871 78.3657 215.771 78.6457 215.771C78.935 215.771 79.1777 215.871 79.3737 216.072C79.5744 216.273 79.6747 216.513 79.6747 216.793C79.6747 217.087 79.5744 217.334 79.3737 217.535C79.1777 217.731 78.935 217.829 78.6457 217.829Z" fill="white"/>
<path d="M188.175 200V193H192.47V193.84H189.015V195.83H191.845V196.67H189.015V199.16H192.47V200H188.175ZM193.292 200L195.122 197.49L193.302 194.99H194.337L195.642 196.77L196.942 194.99H197.977L196.157 197.49L197.987 200H196.952L195.642 198.2L194.327 200H193.292ZM199.894 202.5H199.054V195H199.894V195.855C200.064 195.562 200.29 195.325 200.574 195.145C200.857 194.962 201.194 194.87 201.584 194.87C201.947 194.87 202.287 194.938 202.604 195.075C202.924 195.212 203.204 195.402 203.444 195.645C203.684 195.885 203.872 196.163 204.009 196.48C204.145 196.797 204.214 197.137 204.214 197.5C204.214 197.863 204.145 198.205 204.009 198.525C203.872 198.845 203.684 199.127 203.444 199.37C203.204 199.61 202.924 199.798 202.604 199.935C202.287 200.072 201.947 200.14 201.584 200.14C201.194 200.14 200.857 200.05 200.574 199.87C200.29 199.687 200.064 199.448 199.894 199.155V202.5ZM201.574 195.685C201.25 195.685 200.967 195.767 200.724 195.93C200.48 196.093 200.292 196.312 200.159 196.585C200.029 196.858 199.964 197.163 199.964 197.5C199.964 197.833 200.029 198.138 200.159 198.415C200.292 198.692 200.479 198.912 200.719 199.075C200.962 199.238 201.247 199.32 201.574 199.32C201.897 199.32 202.194 199.24 202.464 199.08C202.734 198.917 202.95 198.698 203.114 198.425C203.277 198.148 203.359 197.84 203.359 197.5C203.359 197.167 203.279 196.863 203.119 196.59C202.959 196.313 202.744 196.093 202.474 195.93C202.204 195.767 201.904 195.685 201.574 195.685ZM205.279 195H206.119V200H205.279V195ZM205.704 194.085C205.574 194.085 205.464 194.042 205.374 193.955C205.284 193.868 205.239 193.76 205.239 193.63C205.239 193.5 205.284 193.392 205.374 193.305C205.464 193.218 205.574 193.175 205.704 193.175C205.834 193.175 205.944 193.218 206.034 193.305C206.124 193.392 206.169 193.5 206.169 193.63C206.169 193.76 206.124 193.868 206.034 193.955C205.944 194.042 205.834 194.085 205.704 194.085ZM210.624 195.83C210.541 195.783 210.451 195.747 210.354 195.72C210.258 195.693 210.153 195.68 210.039 195.68C209.763 195.68 209.516 195.755 209.299 195.905C209.086 196.055 208.918 196.258 208.794 196.515C208.671 196.772 208.609 197.055 208.609 197.365V200H207.764V195H208.604V195.77C208.784 195.49 209.008 195.27 209.274 195.11C209.541 194.947 209.836 194.865 210.159 194.865C210.269 194.865 210.374 194.87 210.474 194.88C210.574 194.89 210.669 194.91 210.759 194.94L210.624 195.83ZM215.061 195H215.951L213.216 202.5H212.326L213.231 200L211.436 195H212.356L213.651 198.845L215.061 195ZM223.776 192.5H224.616V200H223.776V199.15C223.606 199.443 223.378 199.68 223.091 199.86C222.804 200.04 222.468 200.13 222.081 200.13C221.718 200.13 221.378 200.062 221.061 199.925C220.744 199.788 220.464 199.6 220.221 199.36C219.981 199.117 219.793 198.837 219.656 198.52C219.519 198.203 219.451 197.863 219.451 197.5C219.451 197.137 219.519 196.797 219.656 196.48C219.793 196.16 219.981 195.88 220.221 195.64C220.464 195.397 220.744 195.207 221.061 195.07C221.378 194.933 221.718 194.865 222.081 194.865C222.468 194.865 222.804 194.955 223.091 195.135C223.378 195.315 223.606 195.552 223.776 195.845V192.5ZM222.091 199.315C222.421 199.315 222.706 199.235 222.946 199.075C223.189 198.912 223.376 198.692 223.506 198.415C223.639 198.138 223.706 197.833 223.706 197.5C223.706 197.16 223.639 196.853 223.506 196.58C223.373 196.303 223.184 196.085 222.941 195.925C222.701 195.762 222.418 195.68 222.091 195.68C221.761 195.68 221.461 195.762 221.191 195.925C220.924 196.088 220.711 196.308 220.551 196.585C220.391 196.858 220.311 197.163 220.311 197.5C220.311 197.837 220.393 198.143 220.556 198.42C220.719 198.693 220.936 198.912 221.206 199.075C221.476 199.235 221.771 199.315 222.091 199.315ZM230.129 195H230.969V200H230.124L230.094 199.155C229.938 199.445 229.721 199.68 229.444 199.86C229.171 200.04 228.846 200.13 228.469 200.13C228.099 200.13 227.754 200.062 227.434 199.925C227.114 199.785 226.831 199.593 226.584 199.35C226.341 199.103 226.151 198.82 226.014 198.5C225.878 198.18 225.809 197.835 225.809 197.465C225.809 197.108 225.876 196.772 226.009 196.455C226.143 196.138 226.328 195.862 226.564 195.625C226.804 195.385 227.081 195.198 227.394 195.065C227.708 194.928 228.043 194.86 228.399 194.86C228.796 194.86 229.143 194.953 229.439 195.14C229.739 195.323 229.979 195.562 230.159 195.855L230.129 195ZM228.489 199.315C228.823 199.315 229.109 199.232 229.349 199.065C229.589 198.898 229.771 198.675 229.894 198.395C230.021 198.115 230.078 197.805 230.064 197.465C230.051 197.132 229.973 196.83 229.829 196.56C229.686 196.29 229.493 196.077 229.249 195.92C229.006 195.76 228.723 195.68 228.399 195.68C228.069 195.68 227.769 195.763 227.499 195.93C227.229 196.097 227.018 196.32 226.864 196.6C226.714 196.88 226.646 197.192 226.659 197.535C226.676 197.865 226.769 198.165 226.939 198.435C227.109 198.705 227.329 198.92 227.599 199.08C227.873 199.237 228.169 199.315 228.489 199.315ZM234.958 195.84H233.823L233.818 200H232.978L232.983 195.84H232.123V195H232.983L232.978 193.43H233.818L233.823 195H234.958V195.84ZM238.108 200.13C237.648 200.13 237.228 200.012 236.848 199.775C236.471 199.538 236.169 199.222 235.943 198.825C235.719 198.425 235.608 197.983 235.608 197.5C235.608 197.133 235.673 196.792 235.803 196.475C235.933 196.155 236.111 195.875 236.338 195.635C236.568 195.392 236.834 195.202 237.138 195.065C237.441 194.928 237.764 194.86 238.108 194.86C238.484 194.86 238.829 194.937 239.143 195.09C239.459 195.24 239.729 195.45 239.953 195.72C240.179 195.99 240.348 196.303 240.458 196.66C240.571 197.017 240.613 197.398 240.583 197.805H236.503C236.543 198.088 236.636 198.342 236.783 198.565C236.929 198.785 237.116 198.96 237.343 199.09C237.573 199.22 237.828 199.287 238.108 199.29C238.408 199.29 238.679 199.213 238.923 199.06C239.166 198.903 239.363 198.69 239.513 198.42L240.368 198.62C240.168 199.063 239.866 199.427 239.463 199.71C239.059 199.99 238.608 200.13 238.108 200.13ZM236.478 197.145H239.738C239.711 196.865 239.621 196.61 239.468 196.38C239.314 196.147 239.119 195.96 238.883 195.82C238.646 195.68 238.388 195.61 238.108 195.61C237.828 195.61 237.571 195.678 237.338 195.815C237.104 195.952 236.911 196.137 236.758 196.37C236.608 196.6 236.514 196.858 236.478 197.145Z" fill="white"/>
<path d="M189.15 217.829C188.87 217.829 188.63 217.731 188.429 217.535C188.233 217.334 188.135 217.087 188.135 216.793C188.135 216.513 188.233 216.273 188.429 216.072C188.63 215.871 188.87 215.771 189.15 215.771C189.44 215.771 189.682 215.871 189.878 216.072C190.079 216.273 190.179 216.513 190.179 216.793C190.179 217.087 190.079 217.334 189.878 217.535C189.682 217.731 189.44 217.829 189.15 217.829ZM192.508 217.829C192.228 217.829 191.988 217.731 191.787 217.535C191.591 217.334 191.493 217.087 191.493 216.793C191.493 216.513 191.591 216.273 191.787 216.072C191.988 215.871 192.228 215.771 192.508 215.771C192.798 215.771 193.04 215.871 193.236 216.072C193.437 216.273 193.537 216.513 193.537 216.793C193.537 217.087 193.437 217.334 193.236 217.535C193.04 217.731 192.798 217.829 192.508 217.829ZM195.867 217.829C195.587 217.829 195.346 217.731 195.146 217.535C194.95 217.334 194.852 217.087 194.852 216.793C194.852 216.513 194.95 216.273 195.146 216.072C195.346 215.871 195.587 215.771 195.867 215.771C196.156 215.771 196.399 215.871 196.595 216.072C196.795 216.273 196.896 216.513 196.896 216.793C196.896 217.087 196.795 217.334 196.595 217.535C196.399 217.731 196.156 217.829 195.867 217.829ZM199.225 217.829C198.945 217.829 198.704 217.731 198.504 217.535C198.308 217.334 198.21 217.087 198.21 216.793C198.21 216.513 198.308 216.273 198.504 216.072C198.704 215.871 198.945 215.771 199.225 215.771C199.514 215.771 199.757 215.871 199.953 216.072C200.153 216.273 200.254 216.513 200.254 216.793C200.254 217.087 200.153 217.334 199.953 217.535C199.757 217.731 199.514 217.829 199.225 217.829ZM205.859 211.2L203.024 221.784H201.568L204.403 211.2H205.859ZM208.197 217.829C207.917 217.829 207.677 217.731 207.476 217.535C207.28 217.334 207.182 217.087 207.182 216.793C207.182 216.513 207.28 216.273 207.476 216.072C207.677 215.871 207.917 215.771 208.197 215.771C208.486 215.771 208.729 215.871 208.925 216.072C209.126 216.273 209.226 216.513 209.226 216.793C209.226 217.087 209.126 217.334 208.925 217.535C208.729 217.731 208.486 217.829 208.197 217.829ZM211.555 217.829C211.275 217.829 211.035 217.731 210.834 217.535C210.638 217.334 210.54 217.087 210.54 216.793C210.54 216.513 210.638 216.273 210.834 216.072C211.035 215.871 211.275 215.771 211.555 215.771C211.845 215.771 212.087 215.871 212.283 216.072C212.484 216.273 212.584 216.513 212.584 216.793C212.584 217.087 212.484 217.334 212.283 217.535C212.087 217.731 211.845 217.829 211.555 217.829ZM214.913 217.829C214.633 217.829 214.393 217.731 214.192 217.535C213.996 217.334 213.898 217.087 213.898 216.793C213.898 216.513 213.996 216.273 214.192 216.072C214.393 215.871 214.633 215.771 214.913 215.771C215.203 215.771 215.445 215.871 215.641 216.072C215.842 216.273 215.942 216.513 215.942 216.793C215.942 217.087 215.842 217.334 215.641 217.535C215.445 217.731 215.203 217.829 214.913 217.829ZM218.272 217.829C217.992 217.829 217.751 217.731 217.551 217.535C217.355 217.334 217.257 217.087 217.257 216.793C217.257 216.513 217.355 216.273 217.551 216.072C217.751 215.871 217.992 215.771 218.272 215.771C218.561 215.771 218.804 215.871 219 216.072C219.2 216.273 219.301 216.513 219.301 216.793C219.301 217.087 219.2 217.334 219 217.535C218.804 217.731 218.561 217.829 218.272 217.829Z" fill="white"/>
</g>
</g>
<defs>
<filter id="filter0_d_1241_26802" x="0" y="0" width="428" height="287" filterUnits="userSpaceOnUse" color-interpolation-filters="sRGB">
<feFlood flood-opacity="0" result="BackgroundImageFix"/>
<feColorMatrix in="SourceAlpha" type="matrix" values="0 0 0 0 0 0 0 0 0 0 0 0 0 0 0 0 0 0 127 0" result="hardAlpha"/>
<feOffset dx="4" dy="8"/>
<feGaussianBlur stdDeviation="12"/>
<feComposite in2="hardAlpha" operator="out"/>
<feColorMatrix type="matrix" values="0 0 0 0 0.141176 0 0 0 0 0.419608 0 0 0 0 0.992157 0 0 0 0.25 0"/>
<feBlend mode="normal" in2="BackgroundImageFix" result="effect1_dropShadow_1241_26802"/>
<feBlend mode="normal" in="SourceGraphic" in2="effect1_dropShadow_1241_26802" result="shape"/>
</filter>
<linearGradient id="paint0_linear_1241_26802" x1="400" y1="255" x2="-4.26502" y2="68.6363" gradientUnits="userSpaceOnUse">
<stop stop-color="#246BFD"/>
<stop offset="1" stop-color="#5089FF"/>
</linearGradient>
<clipPath id="clip0_1241_26802">
<rect x="20" y="16" width="380" height="239" rx="44" fill="white"/>
</clipPath>
</defs>
</svg>
